<svg width="21" height="24" viewBox="0 0 21 24" fill="none" xmlns="http://www.w3.org/2000/svg">
<path d="M4.13045 7.39497C4.30357 5.83306 5.04666 4.38986 6.21747 3.34165C7.38828 2.29345 8.90456 1.71387 10.476 1.71387C12.0475 1.71387 13.5638 2.29345 14.7346 3.34165C15.9054 4.38986 16.6485 5.83306 16.8216 7.39497L17.1096 9.98486L17.1165 10.05C17.264 11.3347 17.6824 12.5735 18.344 13.6845L18.3783 13.7417L19.0378 14.8423C19.6378 15.8413 19.9373 16.3407 19.8721 16.751C19.8291 17.0234 19.689 17.271 19.4778 17.4482C19.1589 17.7157 18.576 17.7157 17.4114 17.7157H3.54069C2.3749 17.7157 1.792 17.7157 1.47427 17.4494C1.26237 17.2721 1.12188 17.024 1.07881 16.751C1.01481 16.3407 1.31425 15.8413 1.91315 14.8423L2.57491 13.7406L2.6092 13.6834C3.27023 12.5726 3.68821 11.3342 3.83557 10.05L3.84243 9.98486L4.13045 7.39497Z" stroke="#FF5E18" stroke-width="1.5"/>
<path d="M5.90625 17.7148C5.90625 18.9273 6.38791 20.0902 7.24528 20.9476C8.10265 21.8049 9.26549 22.2866 10.478 22.2866C11.6905 22.2866 12.8533 21.8049 13.7107 20.9476C14.5681 20.0902 15.0497 18.9273 15.0497 17.7148" stroke="#FF5E18" stroke-width="1.5" stroke-linecap="round"/>
</svg>
