<svg width="81" height="78" viewBox="0 0 81 78" fill="none" xmlns="http://www.w3.org/2000/svg">
<g filter="url(#filter0_d_157_6988)">
<path d="M44.0712 26.9358C45.8454 18.7113 40.6164 10.6058 32.3918 8.83158C24.1673 7.0574 16.0617 12.2864 14.2876 20.511L11.2893 34.41C9.51511 42.6345 14.7442 50.7401 22.9687 52.5143C31.1932 54.2884 39.2988 49.0594 41.0729 40.8349L44.0712 26.9358Z" fill="#D3D3D3"/>
<path d="M44.0712 26.9358C45.8454 18.7113 40.6164 10.6058 32.3918 8.83158C24.1673 7.0574 16.0617 12.2864 14.2876 20.511L11.2893 34.41C9.51511 42.6345 14.7442 50.7401 22.9687 52.5143C31.1932 54.2884 39.2988 49.0594 41.0729 40.8349L44.0712 26.9358Z" fill="url(#paint0_radial_157_6988)"/>
<path d="M44.0712 26.9358C45.8454 18.7113 40.6164 10.6058 32.3918 8.83158C24.1673 7.0574 16.0617 12.2864 14.2876 20.511L11.2893 34.41C9.51511 42.6345 14.7442 50.7401 22.9687 52.5143C31.1932 54.2884 39.2988 49.0594 41.0729 40.8349L44.0712 26.9358Z" fill="url(#paint1_linear_157_6988)"/>
<path d="M44.0712 26.9358C45.8454 18.7113 40.6164 10.6058 32.3918 8.83158C24.1673 7.0574 16.0617 12.2864 14.2876 20.511L11.2893 34.41C9.51511 42.6345 14.7442 50.7401 22.9687 52.5143C31.1932 54.2884 39.2988 49.0594 41.0729 40.8349L44.0712 26.9358Z" fill="url(#paint2_radial_157_6988)"/>
<path d="M44.0712 26.9358C45.8454 18.7113 40.6164 10.6058 32.3918 8.83158C24.1673 7.0574 16.0617 12.2864 14.2876 20.511L11.2893 34.41C9.51511 42.6345 14.7442 50.7401 22.9687 52.5143C31.1932 54.2884 39.2988 49.0594 41.0729 40.8349L44.0712 26.9358Z" fill="url(#paint3_radial_157_6988)"/>
<path d="M44.0712 26.9358C45.8454 18.7113 40.6164 10.6058 32.3918 8.83158C24.1673 7.0574 16.0617 12.2864 14.2876 20.511L11.2893 34.41C9.51511 42.6345 14.7442 50.7401 22.9687 52.5143C31.1932 54.2884 39.2988 49.0594 41.0729 40.8349L44.0712 26.9358Z" fill="url(#paint4_radial_157_6988)"/>
<path d="M44.0712 26.9358C45.8454 18.7113 40.6164 10.6058 32.3918 8.83158C24.1673 7.0574 16.0617 12.2864 14.2876 20.511L11.2893 34.41C9.51511 42.6345 14.7442 50.7401 22.9687 52.5143C31.1932 54.2884 39.2988 49.0594 41.0729 40.8349L44.0712 26.9358Z" fill="url(#paint5_radial_157_6988)"/>
<path d="M44.0712 26.9358C45.8454 18.7113 40.6164 10.6058 32.3918 8.83158C24.1673 7.0574 16.0617 12.2864 14.2876 20.511L11.2893 34.41C9.51511 42.6345 14.7442 50.7401 22.9687 52.5143C31.1932 54.2884 39.2988 49.0594 41.0729 40.8349L44.0712 26.9358Z" fill="url(#paint6_radial_157_6988)"/>
<g filter="url(#filter1_f_157_6988)">
<path d="M43.6611 22.7903C43.8664 21.8384 43.2613 20.9004 42.3094 20.695C41.3576 20.4897 40.4195 21.0949 40.2142 22.0467L35.9609 41.7635C35.7556 42.7153 36.3607 43.6534 37.3126 43.8588C38.2644 44.0641 39.2025 43.4589 39.4079 42.5071L43.6611 22.7903Z" fill="#6F6873"/>
</g>
<path d="M69.8837 32.5042C71.6579 24.2797 66.4289 16.1741 58.2043 14.3999C49.9798 12.6258 41.8742 17.8548 40.1001 26.0793L37.1018 39.9784C35.3276 48.2029 40.5567 56.3084 48.7812 58.0826C57.0057 59.8568 65.1113 54.6278 66.8854 46.4032L69.8837 32.5042Z" fill="url(#paint7_radial_157_6988)"/>
<path d="M69.8837 32.5042C71.6579 24.2797 66.4289 16.1741 58.2043 14.3999C49.9798 12.6258 41.8742 17.8548 40.1001 26.0793L37.1018 39.9784C35.3276 48.2029 40.5567 56.3084 48.7812 58.0826C57.0057 59.8568 65.1113 54.6278 66.8854 46.4032L69.8837 32.5042Z" fill="url(#paint8_linear_157_6988)"/>
<path d="M69.8837 32.5042C71.6579 24.2797 66.4289 16.1741 58.2043 14.3999C49.9798 12.6258 41.8742 17.8548 40.1001 26.0793L37.1018 39.9784C35.3276 48.2029 40.5567 56.3084 48.7812 58.0826C57.0057 59.8568 65.1113 54.6278 66.8854 46.4032L69.8837 32.5042Z" fill="url(#paint9_radial_157_6988)"/>
<path d="M55.5561 31.4917C56.3841 27.6536 53.9439 23.871 50.1058 23.0431C46.2677 22.2151 42.4851 24.6554 41.6571 28.4935L39.5155 38.4213C38.6875 42.2595 41.1278 46.0421 44.9659 46.87C48.804 47.698 52.5866 45.2577 53.4145 41.4196L55.5561 31.4917Z" fill="url(#paint10_linear_157_6988)"/>
<path d="M55.5561 31.4917C56.3841 27.6536 53.9439 23.871 50.1058 23.0431C46.2677 22.2151 42.4851 24.6554 41.6571 28.4935L39.5155 38.4213C38.6875 42.2595 41.1278 46.0421 44.9659 46.87C48.804 47.698 52.5866 45.2577 53.4145 41.4196L55.5561 31.4917Z" fill="url(#paint11_radial_157_6988)"/>
<path d="M29.8686 25.9497C30.6966 22.1116 28.2564 18.329 24.4183 17.5011C20.5802 16.6731 16.7976 19.1134 15.9696 22.9515L13.828 32.8794C13 36.7175 15.4403 40.5001 19.2784 41.328C23.1165 42.156 26.8991 39.7157 27.727 35.8776L29.8686 25.9497Z" fill="url(#paint12_linear_157_6988)"/>
<path d="M29.8686 25.9497C30.6966 22.1116 28.2564 18.329 24.4183 17.5011C20.5802 16.6731 16.7976 19.1134 15.9696 22.9515L13.828 32.8794C13 36.7175 15.4403 40.5001 19.2784 41.328C23.1165 42.156 26.8991 39.7157 27.727 35.8776L29.8686 25.9497Z" fill="url(#paint13_radial_157_6988)"/>
<path d="M27.0881 26.0992C27.958 25.6444 28.195 24.3803 27.6176 23.2758C27.0401 22.1713 25.8668 21.6446 24.997 22.0994C24.1271 22.5542 23.89 23.8182 24.4674 24.9227C25.0449 26.0273 26.2182 26.554 27.0881 26.0992Z" fill="url(#paint14_radial_157_6988)"/>
<path d="M52.8928 31.6656C53.7626 31.2108 53.9997 29.9468 53.4223 28.8422C52.8448 27.7377 51.6715 27.211 50.8016 27.6658C49.9317 28.1206 49.6947 29.3846 50.2721 30.4892C50.8496 31.5937 52.0229 32.1204 52.8928 31.6656Z" fill="url(#paint15_radial_157_6988)"/>
</g>
<defs>
<filter id="filter0_d_157_6988" x="0.945312" y="0.486328" width="79.2812" height="69.9424" filterUnits="userSpaceOnUse" color-interpolation-filters="sRGB">
<feFlood flood-opacity="0" result="BackgroundImageFix"/>
<feColorMatrix in="SourceAlpha" type="matrix" values="0 0 0 0 0 0 0 0 0 0 0 0 0 0 0 0 0 0 127 0" result="hardAlpha"/>
<feOffset dy="2"/>
<feGaussianBlur stdDeviation="5"/>
<feComposite in2="hardAlpha" operator="out"/>
<feColorMatrix type="matrix" values="0 0 0 0 0.497689 0 0 0 0 0.185798 0 0 0 0 0.117334 0 0 0 0.25 0"/>
<feBlend mode="normal" in2="BackgroundImageFix" result="effect1_dropShadow_157_6988"/>
<feBlend mode="normal" in="SourceGraphic" in2="effect1_dropShadow_157_6988" result="shape"/>
</filter>
<filter id="filter1_f_157_6988" x="35.1719" y="19.9053" width="9.28125" height="24.7432" filterUnits="userSpaceOnUse" color-interpolation-filters="sRGB">
<feFlood flood-opacity="0" result="BackgroundImageFix"/>
<feBlend mode="normal" in="SourceGraphic" in2="BackgroundImageFix" result="shape"/>
<feGaussianBlur stdDeviation="0.375" result="effect1_foregroundBlur_157_6988"/>
</filter>
<radialGradient id="paint0_radial_157_6988" cx="0" cy="0" r="1" gradientUnits="userSpaceOnUse" gradientTransform="translate(35.062 20.8361) rotate(113.25) scale(42.9485 33.2138)">
<stop stop-color="#FAF7FC"/>
<stop offset="0.457" stop-color="#D8D0DD"/>
<stop offset="0.708" stop-color="#D0B3E3"/>
<stop offset="1" stop-color="#CFABE4"/>
</radialGradient>
<linearGradient id="paint1_linear_157_6988" x1="5.82592" y1="29.3353" x2="24.4055" y2="36.057" gradientUnits="userSpaceOnUse">
<stop offset="0.399" stop-color="#9B969E"/>
<stop offset="1" stop-color="#9A959E" stop-opacity="0"/>
</linearGradient>
<radialGradient id="paint2_radial_157_6988" cx="0" cy="0" r="1" gradientUnits="userSpaceOnUse" gradientTransform="translate(38.4136 42.4223) rotate(-121.621) scale(40.7522 44.1108)">
<stop offset="0.844" stop-color="#9A959E" stop-opacity="0"/>
<stop offset="0.949" stop-color="#949296"/>
</radialGradient>
<radialGradient id="paint3_radial_157_6988" cx="0" cy="0" r="1" gradientUnits="userSpaceOnUse" gradientTransform="translate(45.2165 41.8854) rotate(-143.214) scale(17.4362 42.3954)">
<stop offset="0.022" stop-color="#D1AFE5"/>
<stop offset="1" stop-color="#D1AFE5" stop-opacity="0"/>
</radialGradient>
<radialGradient id="paint4_radial_157_6988" cx="0" cy="0" r="1" gradientUnits="userSpaceOnUse" gradientTransform="translate(40.211 37.9621) rotate(-167.827) scale(11.2762 32.0308)">
<stop stop-color="#ABA5B0"/>
<stop offset="1" stop-color="#ABA5B0" stop-opacity="0"/>
</radialGradient>
<radialGradient id="paint5_radial_157_6988" cx="0" cy="0" r="1" gradientUnits="userSpaceOnUse" gradientTransform="translate(44.1991 43.5025) rotate(-124.98) scale(15.38 42.3767)">
<stop stop-color="#B689D0"/>
<stop offset="1" stop-color="#B689D0" stop-opacity="0"/>
</radialGradient>
<radialGradient id="paint6_radial_157_6988" cx="0" cy="0" r="1" gradientUnits="userSpaceOnUse" gradientTransform="translate(40.4937 19.0346) rotate(153.137) scale(7.13942 13.5803)">
<stop stop-color="#F3F2F4"/>
<stop offset="1" stop-color="#F3F2F4" stop-opacity="0"/>
</radialGradient>
<radialGradient id="paint7_radial_157_6988" cx="0" cy="0" r="1" gradientUnits="userSpaceOnUse" gradientTransform="translate(61.3471 29.6234) rotate(115.683) scale(40.2143 31.0993)">
<stop stop-color="#FAF7FC"/>
<stop offset="0.457" stop-color="#D8D0DD"/>
<stop offset="0.708" stop-color="#D0B3E3"/>
<stop offset="1" stop-color="#CFABE4"/>
</radialGradient>
<linearGradient id="paint8_linear_157_6988" x1="31.6384" y1="34.9036" x2="50.1266" y2="40.7101" gradientUnits="userSpaceOnUse">
<stop offset="0.212" stop-color="#9B969E"/>
<stop offset="1" stop-color="#9A959E" stop-opacity="0"/>
</linearGradient>
<radialGradient id="paint9_radial_157_6988" cx="0" cy="0" r="1" gradientUnits="userSpaceOnUse" gradientTransform="translate(66.3062 24.6027) rotate(153.137) scale(7.13942 13.5803)">
<stop stop-color="#F3F2F4"/>
<stop offset="1" stop-color="#F3F2F4" stop-opacity="0"/>
</radialGradient>
<linearGradient id="paint10_linear_157_6988" x1="50.1058" y1="23.0431" x2="44.9659" y2="46.87" gradientUnits="userSpaceOnUse">
<stop offset="0.354" stop-color="#232224"/>
<stop offset="1" stop-color="#623C86"/>
</linearGradient>
<radialGradient id="paint11_radial_157_6988" cx="0" cy="0" r="1" gradientUnits="userSpaceOnUse" gradientTransform="translate(49.6025 34.1036) rotate(102.173) scale(13.457 4.41559)">
<stop offset="0.354" stop-color="#443753"/>
<stop offset="1" stop-color="#433750" stop-opacity="0"/>
</radialGradient>
<linearGradient id="paint12_linear_157_6988" x1="24.4183" y1="17.5011" x2="19.2784" y2="41.328" gradientUnits="userSpaceOnUse">
<stop offset="0.354" stop-color="#232224"/>
<stop offset="1" stop-color="#623C86"/>
</linearGradient>
<radialGradient id="paint13_radial_157_6988" cx="0" cy="0" r="1" gradientUnits="userSpaceOnUse" gradientTransform="translate(23.915 28.5616) rotate(102.173) scale(13.457 4.41559)">
<stop offset="0.354" stop-color="#443753"/>
<stop offset="1" stop-color="#433750" stop-opacity="0"/>
</radialGradient>
<radialGradient id="paint14_radial_157_6988" cx="0" cy="0" r="1" gradientUnits="userSpaceOnUse" gradientTransform="translate(25.2778 22.5577) rotate(99.9133) scale(4.82799 5.08091)">
<stop stop-color="white"/>
<stop offset="1" stop-color="#F4F4F4" stop-opacity="0"/>
</radialGradient>
<radialGradient id="paint15_radial_157_6988" cx="0" cy="0" r="1" gradientUnits="userSpaceOnUse" gradientTransform="translate(51.0843 28.1231) rotate(99.9133) scale(4.82799 5.08091)">
<stop stop-color="white"/>
<stop offset="1" stop-color="#F4F4F4" stop-opacity="0"/>
</radialGradient>
</defs>
</svg>
