<svg width="89" height="95" viewBox="0 0 89 95" fill="none" xmlns="http://www.w3.org/2000/svg">
<g filter="url(#filter0_i_157_7088)">
<g filter="url(#filter1_d_157_7088)">
<path d="M40.8127 29.4325L58.0268 24.632C59.1375 24.3139 60.0776 23.57 60.6425 22.5622C61.2074 21.5543 61.3514 20.3642 61.0431 19.2507C59.1966 12.6296 50.3421 11.4655 46.8836 17.3707L40.4953 28.3021L40.8127 29.4325Z" fill="#DE2236"/>
</g>
<g filter="url(#filter2_d_157_7088)">
<path d="M40.8127 29.4325L58.0268 24.632C59.1375 24.3139 60.0776 23.57 60.6425 22.5622C61.2074 21.5543 61.3514 20.3642 61.0431 19.2507C59.1966 12.6296 50.3421 11.4655 46.8836 17.3707L40.4953 28.3021L40.8127 29.4325Z" fill="url(#paint0_linear_157_7088)" shape-rendering="crispEdges"/>
</g>
</g>
<g filter="url(#filter3_i_157_7088)">
<g filter="url(#filter4_d_157_7088)">
<path d="M40.8096 29.4316L23.5916 34.2331C22.4769 34.5345 21.2884 34.3837 20.2843 33.8135C19.2803 33.2434 18.5419 32.2999 18.2297 31.1882C16.3833 24.5671 23.3576 18.9888 29.3729 22.2521L40.4942 28.3007L40.8096 29.4316Z" fill="url(#paint1_linear_157_7088)"/>
</g>
<g filter="url(#filter5_d_157_7088)">
<path d="M40.8096 29.4316L23.5916 34.2331C22.4769 34.5345 21.2884 34.3837 20.2843 33.8135C19.2803 33.2434 18.5419 32.2999 18.2297 31.1882C16.3833 24.5671 23.3576 18.9888 29.3729 22.2521L40.4942 28.3007L40.8096 29.4316Z" fill="url(#paint2_linear_157_7088)" shape-rendering="crispEdges"/>
</g>
<g filter="url(#filter6_d_157_7088)">
<path d="M40.8096 29.4316L23.5916 34.2331C22.4769 34.5345 21.2884 34.3837 20.2843 33.8135C19.2803 33.2434 18.5419 32.2999 18.2297 31.1882C16.3833 24.5671 23.3576 18.9888 29.3729 22.2521L40.4942 28.3007L40.8096 29.4316Z" fill="url(#paint3_radial_157_7088)" shape-rendering="crispEdges"/>
</g>
</g>
<g filter="url(#filter7_d_157_7088)">
<path d="M70.0889 67.6605L35.3085 77.3596C34.7699 77.5151 34.2059 77.5625 33.649 77.4992C33.092 77.4359 32.5531 77.263 32.0632 76.9906C31.5733 76.7182 31.1421 76.3516 30.7944 75.9119C30.4468 75.4722 30.1895 74.9681 30.0374 74.4286L22.9922 49.165L66.0373 37.1611L73.0836 62.4286C73.7089 64.6708 72.382 67.021 70.0889 67.6605Z" fill="url(#paint4_linear_157_7088)"/>
</g>
<g filter="url(#filter8_d_157_7088)">
<path d="M70.0889 67.6605L35.3085 77.3596C34.7699 77.5151 34.2059 77.5625 33.649 77.4992C33.092 77.4359 32.5531 77.263 32.0632 76.9906C31.5733 76.7182 31.1421 76.3516 30.7944 75.9119C30.4468 75.4722 30.1895 74.9681 30.0374 74.4286L22.9922 49.165L66.0373 37.1611L73.0836 62.4286C73.7089 64.6708 72.382 67.021 70.0889 67.6605Z" fill="url(#paint5_linear_157_7088)" shape-rendering="crispEdges"/>
</g>
<g filter="url(#filter9_d_157_7088)">
<path d="M70.0889 67.6605L35.3085 77.3596C34.7699 77.5151 34.2059 77.5625 33.649 77.4992C33.092 77.4359 32.5531 77.263 32.0632 76.9906C31.5733 76.7182 31.1421 76.3516 30.7944 75.9119C30.4468 75.4722 30.1895 74.9681 30.0374 74.4286L22.9922 49.165L66.0373 37.1611L73.0836 62.4286C73.7089 64.6708 72.382 67.021 70.0889 67.6605Z" fill="url(#paint6_radial_157_7088)" shape-rendering="crispEdges"/>
</g>
<g filter="url(#filter10_d_157_7088)">
<path d="M70.0889 67.6605L35.3085 77.3596C34.7699 77.5151 34.2059 77.5625 33.649 77.4992C33.092 77.4359 32.5531 77.263 32.0632 76.9906C31.5733 76.7182 31.1421 76.3516 30.7944 75.9119C30.4468 75.4722 30.1895 74.9681 30.0374 74.4286L22.9922 49.165L66.0373 37.1611L73.0836 62.4286C73.7089 64.6708 72.382 67.021 70.0889 67.6605Z" fill="url(#paint7_linear_157_7088)" shape-rendering="crispEdges"/>
</g>
<g filter="url(#filter11_d_157_7088)">
<path d="M70.0889 67.6605L35.3085 77.3596C34.7699 77.5151 34.2059 77.5625 33.649 77.4992C33.092 77.4359 32.5531 77.263 32.0632 76.9906C31.5733 76.7182 31.1421 76.3516 30.7944 75.9119C30.4468 75.4722 30.1895 74.9681 30.0374 74.4286L22.9922 49.165L66.0373 37.1611L73.0836 62.4286C73.7089 64.6708 72.382 67.021 70.0889 67.6605Z" fill="url(#paint8_linear_157_7088)" shape-rendering="crispEdges"/>
</g>
<g filter="url(#filter12_d_157_7088)">
<path d="M70.0889 67.6605L35.3085 77.3596C34.7699 77.5151 34.2059 77.5625 33.649 77.4992C33.092 77.4359 32.5531 77.263 32.0632 76.9906C31.5733 76.7182 31.1421 76.3516 30.7944 75.9119C30.4468 75.4722 30.1895 74.9681 30.0374 74.4286L22.9922 49.165L66.0373 37.1611L73.0836 62.4286C73.7089 64.6708 72.382 67.021 70.0889 67.6605Z" fill="url(#paint9_linear_157_7088)" shape-rendering="crispEdges"/>
</g>
<g filter="url(#filter13_d_157_7088)">
<path d="M63.5113 23.1012L17.8738 35.8281C16.4318 36.2302 15.5852 37.7316 15.9901 39.1834L18.345 47.628C18.7493 49.0779 20.2512 49.9264 21.6952 49.5237L67.3308 36.7974C68.7747 36.3947 69.6202 34.8895 69.2165 33.4416L66.8615 24.9969C66.4572 23.5471 64.9553 22.6986 63.5113 23.1012Z" fill="url(#paint10_linear_157_7088)"/>
</g>
<g filter="url(#filter14_d_157_7088)">
<path d="M63.5113 23.1012L17.8738 35.8281C16.4318 36.2302 15.5852 37.7316 15.9901 39.1834L18.345 47.628C18.7493 49.0779 20.2512 49.9264 21.6952 49.5237L67.3308 36.7974C68.7747 36.3947 69.6202 34.8895 69.2165 33.4416L66.8615 24.9969C66.4572 23.5471 64.9553 22.6986 63.5113 23.1012Z" fill="url(#paint11_linear_157_7088)" shape-rendering="crispEdges"/>
</g>
<g filter="url(#filter15_d_157_7088)">
<path d="M63.5113 23.1012L17.8738 35.8281C16.4318 36.2302 15.5852 37.7316 15.9901 39.1834L18.345 47.628C18.7493 49.0779 20.2512 49.9264 21.6952 49.5237L67.3308 36.7974C68.7747 36.3947 69.6202 34.8895 69.2165 33.4416L66.8615 24.9969C66.4572 23.5471 64.9553 22.6986 63.5113 23.1012Z" fill="url(#paint12_linear_157_7088)" shape-rendering="crispEdges"/>
</g>
<g filter="url(#filter16_d_157_7088)">
<path d="M63.5113 23.1012L17.8738 35.8281C16.4318 36.2302 15.5852 37.7316 15.9901 39.1834L18.345 47.628C18.7493 49.0779 20.2512 49.9264 21.6952 49.5237L67.3308 36.7974C68.7747 36.3947 69.6202 34.8895 69.2165 33.4416L66.8615 24.9969C66.4572 23.5471 64.9553 22.6986 63.5113 23.1012Z" fill="url(#paint13_radial_157_7088)" shape-rendering="crispEdges"/>
</g>
<g filter="url(#filter17_d_157_7088)">
<path d="M63.5113 23.1012L17.8738 35.8281C16.4318 36.2302 15.5852 37.7316 15.9901 39.1834L18.345 47.628C18.7493 49.0779 20.2512 49.9264 21.6952 49.5237L67.3308 36.7974C68.7747 36.3947 69.6202 34.8895 69.2165 33.4416L66.8615 24.9969C66.4572 23.5471 64.9553 22.6986 63.5113 23.1012Z" fill="url(#paint14_linear_157_7088)" shape-rendering="crispEdges"/>
</g>
<g filter="url(#filter18_d_157_7088)">
<path d="M63.5113 23.1012L17.8738 35.8281C16.4318 36.2302 15.5852 37.7316 15.9901 39.1834L18.345 47.628C18.7493 49.0779 20.2512 49.9264 21.6952 49.5237L67.3308 36.7974C68.7747 36.3947 69.6202 34.8895 69.2165 33.4416L66.8615 24.9969C66.4572 23.5471 64.9553 22.6986 63.5113 23.1012Z" fill="url(#paint15_radial_157_7088)" shape-rendering="crispEdges"/>
</g>
<g filter="url(#filter19_ii_157_7088)">
<g filter="url(#filter20_d_157_7088)">
<path d="M37.9733 19.6787C34.7254 20.5845 32.8402 23.995 33.7634 27.3055L46.8258 74.1464L58.5654 70.8726L45.503 24.0317C44.5999 20.7177 41.2232 18.7724 37.9733 19.6787Z" fill="url(#paint16_linear_157_7088)"/>
</g>
<g filter="url(#filter21_d_157_7088)">
<path d="M37.9733 19.6787C34.7254 20.5845 32.8402 23.995 33.7634 27.3055L46.8258 74.1464L58.5654 70.8726L45.503 24.0317C44.5999 20.7177 41.2232 18.7724 37.9733 19.6787Z" fill="url(#paint17_linear_157_7088)" shape-rendering="crispEdges"/>
</g>
</g>
<g filter="url(#filter22_f_157_7088)">
<g filter="url(#filter23_d_157_7088)">
<path d="M53.6406 15.3105C55.2822 15.2914 58.7514 16.245 59.4866 20.2048" stroke="#FB5157" stroke-width="0.3125" stroke-linecap="round" shape-rendering="crispEdges"/>
</g>
</g>
<g filter="url(#filter24_f_157_7088)">
<g filter="url(#filter25_d_157_7088)">
<path d="M25.4849 22.8038C25.7811 22.6938 26.7326 22.6498 28.1706 23.3601C29.6081 24.0685 31.7396 25.3298 32.6246 25.8717" stroke="#FB5157" stroke-width="0.3125" stroke-linecap="round" shape-rendering="crispEdges"/>
</g>
</g>
<defs>
<filter id="filter0_i_157_7088" x="40.4922" y="13.5439" width="20.8984" height="16.0762" filterUnits="userSpaceOnUse" color-interpolation-filters="sRGB">
<feFlood flood-opacity="0" result="BackgroundImageFix"/>
<feBlend mode="normal" in="SourceGraphic" in2="BackgroundImageFix" result="shape"/>
<feColorMatrix in="SourceAlpha" type="matrix" values="0 0 0 0 0 0 0 0 0 0 0 0 0 0 0 0 0 0 127 0" result="hardAlpha"/>
<feOffset dx="0.1875" dy="0.1875"/>
<feGaussianBlur stdDeviation="0.234375"/>
<feComposite in2="hardAlpha" operator="arithmetic" k2="-1" k3="1"/>
<feColorMatrix type="matrix" values="0 0 0 0 0.698039 0 0 0 0 0.235294 0 0 0 0 0.243137 0 0 0 1 0"/>
<feBlend mode="normal" in2="shape" result="effect1_innerShadow_157_7088"/>
</filter>
<filter id="filter1_d_157_7088" x="25.4922" y="0.543945" width="50.7109" height="45.8887" filterUnits="userSpaceOnUse" color-interpolation-filters="sRGB">
<feFlood flood-opacity="0" result="BackgroundImageFix"/>
<feColorMatrix in="SourceAlpha" type="matrix" values="0 0 0 0 0 0 0 0 0 0 0 0 0 0 0 0 0 0 127 0" result="hardAlpha"/>
<feOffset dy="2"/>
<feGaussianBlur stdDeviation="7.5"/>
<feComposite in2="hardAlpha" operator="out"/>
<feColorMatrix type="matrix" values="0 0 0 0 0.595101 0 0 0 0 0.174453 0 0 0 0 0.174453 0 0 0 0.25 0"/>
<feBlend mode="normal" in2="BackgroundImageFix" result="effect1_dropShadow_157_7088"/>
<feBlend mode="normal" in="SourceGraphic" in2="effect1_dropShadow_157_7088" result="shape"/>
</filter>
<filter id="filter2_d_157_7088" x="25.4922" y="0.543945" width="50.7109" height="45.8887" filterUnits="userSpaceOnUse" color-interpolation-filters="sRGB">
<feFlood flood-opacity="0" result="BackgroundImageFix"/>
<feColorMatrix in="SourceAlpha" type="matrix" values="0 0 0 0 0 0 0 0 0 0 0 0 0 0 0 0 0 0 127 0" result="hardAlpha"/>
<feOffset dy="2"/>
<feGaussianBlur stdDeviation="7.5"/>
<feComposite in2="hardAlpha" operator="out"/>
<feColorMatrix type="matrix" values="0 0 0 0 0.595101 0 0 0 0 0.174453 0 0 0 0 0.174453 0 0 0 0.25 0"/>
<feBlend mode="normal" in2="BackgroundImageFix" result="effect1_dropShadow_157_7088"/>
<feBlend mode="normal" in="SourceGraphic" in2="effect1_dropShadow_157_7088" result="shape"/>
</filter>
<filter id="filter3_i_157_7088" x="17.9297" y="21.1055" width="23.1953" height="13.2793" filterUnits="userSpaceOnUse" color-interpolation-filters="sRGB">
<feFlood flood-opacity="0" result="BackgroundImageFix"/>
<feBlend mode="normal" in="SourceGraphic" in2="BackgroundImageFix" result="shape"/>
<feColorMatrix in="SourceAlpha" type="matrix" values="0 0 0 0 0 0 0 0 0 0 0 0 0 0 0 0 0 0 127 0" result="hardAlpha"/>
<feOffset dx="0.3125" dy="-0.1875"/>
<feGaussianBlur stdDeviation="0.234375"/>
<feComposite in2="hardAlpha" operator="arithmetic" k2="-1" k3="1"/>
<feColorMatrix type="matrix" values="0 0 0 0 0.698039 0 0 0 0 0.235294 0 0 0 0 0.243137 0 0 0 1 0"/>
<feBlend mode="normal" in2="shape" result="effect1_innerShadow_157_7088"/>
</filter>
<filter id="filter4_d_157_7088" x="2.92969" y="8.29297" width="52.8828" height="43.0918" filterUnits="userSpaceOnUse" color-interpolation-filters="sRGB">
<feFlood flood-opacity="0" result="BackgroundImageFix"/>
<feColorMatrix in="SourceAlpha" type="matrix" values="0 0 0 0 0 0 0 0 0 0 0 0 0 0 0 0 0 0 127 0" result="hardAlpha"/>
<feOffset dy="2"/>
<feGaussianBlur stdDeviation="7.5"/>
<feComposite in2="hardAlpha" operator="out"/>
<feColorMatrix type="matrix" values="0 0 0 0 0.595101 0 0 0 0 0.174453 0 0 0 0 0.174453 0 0 0 0.25 0"/>
<feBlend mode="normal" in2="BackgroundImageFix" result="effect1_dropShadow_157_7088"/>
<feBlend mode="normal" in="SourceGraphic" in2="effect1_dropShadow_157_7088" result="shape"/>
</filter>
<filter id="filter5_d_157_7088" x="2.92969" y="8.29297" width="52.8828" height="43.0918" filterUnits="userSpaceOnUse" color-interpolation-filters="sRGB">
<feFlood flood-opacity="0" result="BackgroundImageFix"/>
<feColorMatrix in="SourceAlpha" type="matrix" values="0 0 0 0 0 0 0 0 0 0 0 0 0 0 0 0 0 0 127 0" result="hardAlpha"/>
<feOffset dy="2"/>
<feGaussianBlur stdDeviation="7.5"/>
<feComposite in2="hardAlpha" operator="out"/>
<feColorMatrix type="matrix" values="0 0 0 0 0.595101 0 0 0 0 0.174453 0 0 0 0 0.174453 0 0 0 0.25 0"/>
<feBlend mode="normal" in2="BackgroundImageFix" result="effect1_dropShadow_157_7088"/>
<feBlend mode="normal" in="SourceGraphic" in2="effect1_dropShadow_157_7088" result="shape"/>
</filter>
<filter id="filter6_d_157_7088" x="2.92969" y="8.29297" width="52.8828" height="43.0918" filterUnits="userSpaceOnUse" color-interpolation-filters="sRGB">
<feFlood flood-opacity="0" result="BackgroundImageFix"/>
<feColorMatrix in="SourceAlpha" type="matrix" values="0 0 0 0 0 0 0 0 0 0 0 0 0 0 0 0 0 0 127 0" result="hardAlpha"/>
<feOffset dy="2"/>
<feGaussianBlur stdDeviation="7.5"/>
<feComposite in2="hardAlpha" operator="out"/>
<feColorMatrix type="matrix" values="0 0 0 0 0.595101 0 0 0 0 0.174453 0 0 0 0 0.174453 0 0 0 0.25 0"/>
<feBlend mode="normal" in2="BackgroundImageFix" result="effect1_dropShadow_157_7088"/>
<feBlend mode="normal" in="SourceGraphic" in2="effect1_dropShadow_157_7088" result="shape"/>
</filter>
<filter id="filter7_d_157_7088" x="7.99219" y="24.1611" width="80.2422" height="70.3652" filterUnits="userSpaceOnUse" color-interpolation-filters="sRGB">
<feFlood flood-opacity="0" result="BackgroundImageFix"/>
<feColorMatrix in="SourceAlpha" type="matrix" values="0 0 0 0 0 0 0 0 0 0 0 0 0 0 0 0 0 0 127 0" result="hardAlpha"/>
<feOffset dy="2"/>
<feGaussianBlur stdDeviation="7.5"/>
<feComposite in2="hardAlpha" operator="out"/>
<feColorMatrix type="matrix" values="0 0 0 0 0.595101 0 0 0 0 0.174453 0 0 0 0 0.174453 0 0 0 0.25 0"/>
<feBlend mode="normal" in2="BackgroundImageFix" result="effect1_dropShadow_157_7088"/>
<feBlend mode="normal" in="SourceGraphic" in2="effect1_dropShadow_157_7088" result="shape"/>
</filter>
<filter id="filter8_d_157_7088" x="7.99219" y="24.1611" width="80.2422" height="70.3652" filterUnits="userSpaceOnUse" color-interpolation-filters="sRGB">
<feFlood flood-opacity="0" result="BackgroundImageFix"/>
<feColorMatrix in="SourceAlpha" type="matrix" values="0 0 0 0 0 0 0 0 0 0 0 0 0 0 0 0 0 0 127 0" result="hardAlpha"/>
<feOffset dy="2"/>
<feGaussianBlur stdDeviation="7.5"/>
<feComposite in2="hardAlpha" operator="out"/>
<feColorMatrix type="matrix" values="0 0 0 0 0.595101 0 0 0 0 0.174453 0 0 0 0 0.174453 0 0 0 0.25 0"/>
<feBlend mode="normal" in2="BackgroundImageFix" result="effect1_dropShadow_157_7088"/>
<feBlend mode="normal" in="SourceGraphic" in2="effect1_dropShadow_157_7088" result="shape"/>
</filter>
<filter id="filter9_d_157_7088" x="7.99219" y="24.1611" width="80.2422" height="70.3652" filterUnits="userSpaceOnUse" color-interpolation-filters="sRGB">
<feFlood flood-opacity="0" result="BackgroundImageFix"/>
<feColorMatrix in="SourceAlpha" type="matrix" values="0 0 0 0 0 0 0 0 0 0 0 0 0 0 0 0 0 0 127 0" result="hardAlpha"/>
<feOffset dy="2"/>
<feGaussianBlur stdDeviation="7.5"/>
<feComposite in2="hardAlpha" operator="out"/>
<feColorMatrix type="matrix" values="0 0 0 0 0.595101 0 0 0 0 0.174453 0 0 0 0 0.174453 0 0 0 0.25 0"/>
<feBlend mode="normal" in2="BackgroundImageFix" result="effect1_dropShadow_157_7088"/>
<feBlend mode="normal" in="SourceGraphic" in2="effect1_dropShadow_157_7088" result="shape"/>
</filter>
<filter id="filter10_d_157_7088" x="7.99219" y="24.1611" width="80.2422" height="70.3652" filterUnits="userSpaceOnUse" color-interpolation-filters="sRGB">
<feFlood flood-opacity="0" result="BackgroundImageFix"/>
<feColorMatrix in="SourceAlpha" type="matrix" values="0 0 0 0 0 0 0 0 0 0 0 0 0 0 0 0 0 0 127 0" result="hardAlpha"/>
<feOffset dy="2"/>
<feGaussianBlur stdDeviation="7.5"/>
<feComposite in2="hardAlpha" operator="out"/>
<feColorMatrix type="matrix" values="0 0 0 0 0.595101 0 0 0 0 0.174453 0 0 0 0 0.174453 0 0 0 0.25 0"/>
<feBlend mode="normal" in2="BackgroundImageFix" result="effect1_dropShadow_157_7088"/>
<feBlend mode="normal" in="SourceGraphic" in2="effect1_dropShadow_157_7088" result="shape"/>
</filter>
<filter id="filter11_d_157_7088" x="7.99219" y="24.1611" width="80.2422" height="70.3652" filterUnits="userSpaceOnUse" color-interpolation-filters="sRGB">
<feFlood flood-opacity="0" result="BackgroundImageFix"/>
<feColorMatrix in="SourceAlpha" type="matrix" values="0 0 0 0 0 0 0 0 0 0 0 0 0 0 0 0 0 0 127 0" result="hardAlpha"/>
<feOffset dy="2"/>
<feGaussianBlur stdDeviation="7.5"/>
<feComposite in2="hardAlpha" operator="out"/>
<feColorMatrix type="matrix" values="0 0 0 0 0.595101 0 0 0 0 0.174453 0 0 0 0 0.174453 0 0 0 0.25 0"/>
<feBlend mode="normal" in2="BackgroundImageFix" result="effect1_dropShadow_157_7088"/>
<feBlend mode="normal" in="SourceGraphic" in2="effect1_dropShadow_157_7088" result="shape"/>
</filter>
<filter id="filter12_d_157_7088" x="7.99219" y="24.1611" width="80.2422" height="70.3652" filterUnits="userSpaceOnUse" color-interpolation-filters="sRGB">
<feFlood flood-opacity="0" result="BackgroundImageFix"/>
<feColorMatrix in="SourceAlpha" type="matrix" values="0 0 0 0 0 0 0 0 0 0 0 0 0 0 0 0 0 0 127 0" result="hardAlpha"/>
<feOffset dy="2"/>
<feGaussianBlur stdDeviation="7.5"/>
<feComposite in2="hardAlpha" operator="out"/>
<feColorMatrix type="matrix" values="0 0 0 0 0.595101 0 0 0 0 0.174453 0 0 0 0 0.174453 0 0 0 0.25 0"/>
<feBlend mode="normal" in2="BackgroundImageFix" result="effect1_dropShadow_157_7088"/>
<feBlend mode="normal" in="SourceGraphic" in2="effect1_dropShadow_157_7088" result="shape"/>
</filter>
<filter id="filter13_d_157_7088" x="0.890625" y="10.001" width="83.4297" height="56.623" filterUnits="userSpaceOnUse" color-interpolation-filters="sRGB">
<feFlood flood-opacity="0" result="BackgroundImageFix"/>
<feColorMatrix in="SourceAlpha" type="matrix" values="0 0 0 0 0 0 0 0 0 0 0 0 0 0 0 0 0 0 127 0" result="hardAlpha"/>
<feOffset dy="2"/>
<feGaussianBlur stdDeviation="7.5"/>
<feComposite in2="hardAlpha" operator="out"/>
<feColorMatrix type="matrix" values="0 0 0 0 0.595101 0 0 0 0 0.174453 0 0 0 0 0.174453 0 0 0 0.25 0"/>
<feBlend mode="normal" in2="BackgroundImageFix" result="effect1_dropShadow_157_7088"/>
<feBlend mode="normal" in="SourceGraphic" in2="effect1_dropShadow_157_7088" result="shape"/>
</filter>
<filter id="filter14_d_157_7088" x="0.890625" y="10.001" width="83.4297" height="56.623" filterUnits="userSpaceOnUse" color-interpolation-filters="sRGB">
<feFlood flood-opacity="0" result="BackgroundImageFix"/>
<feColorMatrix in="SourceAlpha" type="matrix" values="0 0 0 0 0 0 0 0 0 0 0 0 0 0 0 0 0 0 127 0" result="hardAlpha"/>
<feOffset dy="2"/>
<feGaussianBlur stdDeviation="7.5"/>
<feComposite in2="hardAlpha" operator="out"/>
<feColorMatrix type="matrix" values="0 0 0 0 0.595101 0 0 0 0 0.174453 0 0 0 0 0.174453 0 0 0 0.25 0"/>
<feBlend mode="normal" in2="BackgroundImageFix" result="effect1_dropShadow_157_7088"/>
<feBlend mode="normal" in="SourceGraphic" in2="effect1_dropShadow_157_7088" result="shape"/>
</filter>
<filter id="filter15_d_157_7088" x="0.890625" y="10.001" width="83.4297" height="56.623" filterUnits="userSpaceOnUse" color-interpolation-filters="sRGB">
<feFlood flood-opacity="0" result="BackgroundImageFix"/>
<feColorMatrix in="SourceAlpha" type="matrix" values="0 0 0 0 0 0 0 0 0 0 0 0 0 0 0 0 0 0 127 0" result="hardAlpha"/>
<feOffset dy="2"/>
<feGaussianBlur stdDeviation="7.5"/>
<feComposite in2="hardAlpha" operator="out"/>
<feColorMatrix type="matrix" values="0 0 0 0 0.595101 0 0 0 0 0.174453 0 0 0 0 0.174453 0 0 0 0.25 0"/>
<feBlend mode="normal" in2="BackgroundImageFix" result="effect1_dropShadow_157_7088"/>
<feBlend mode="normal" in="SourceGraphic" in2="effect1_dropShadow_157_7088" result="shape"/>
</filter>
<filter id="filter16_d_157_7088" x="0.890625" y="10.001" width="83.4297" height="56.623" filterUnits="userSpaceOnUse" color-interpolation-filters="sRGB">
<feFlood flood-opacity="0" result="BackgroundImageFix"/>
<feColorMatrix in="SourceAlpha" type="matrix" values="0 0 0 0 0 0 0 0 0 0 0 0 0 0 0 0 0 0 127 0" result="hardAlpha"/>
<feOffset dy="2"/>
<feGaussianBlur stdDeviation="7.5"/>
<feComposite in2="hardAlpha" operator="out"/>
<feColorMatrix type="matrix" values="0 0 0 0 0.595101 0 0 0 0 0.174453 0 0 0 0 0.174453 0 0 0 0.25 0"/>
<feBlend mode="normal" in2="BackgroundImageFix" result="effect1_dropShadow_157_7088"/>
<feBlend mode="normal" in="SourceGraphic" in2="effect1_dropShadow_157_7088" result="shape"/>
</filter>
<filter id="filter17_d_157_7088" x="0.890625" y="10.001" width="83.4297" height="56.623" filterUnits="userSpaceOnUse" color-interpolation-filters="sRGB">
<feFlood flood-opacity="0" result="BackgroundImageFix"/>
<feColorMatrix in="SourceAlpha" type="matrix" values="0 0 0 0 0 0 0 0 0 0 0 0 0 0 0 0 0 0 127 0" result="hardAlpha"/>
<feOffset dy="2"/>
<feGaussianBlur stdDeviation="7.5"/>
<feComposite in2="hardAlpha" operator="out"/>
<feColorMatrix type="matrix" values="0 0 0 0 0.595101 0 0 0 0 0.174453 0 0 0 0 0.174453 0 0 0 0.25 0"/>
<feBlend mode="normal" in2="BackgroundImageFix" result="effect1_dropShadow_157_7088"/>
<feBlend mode="normal" in="SourceGraphic" in2="effect1_dropShadow_157_7088" result="shape"/>
</filter>
<filter id="filter18_d_157_7088" x="0.890625" y="10.001" width="83.4297" height="56.623" filterUnits="userSpaceOnUse" color-interpolation-filters="sRGB">
<feFlood flood-opacity="0" result="BackgroundImageFix"/>
<feColorMatrix in="SourceAlpha" type="matrix" values="0 0 0 0 0 0 0 0 0 0 0 0 0 0 0 0 0 0 127 0" result="hardAlpha"/>
<feOffset dy="2"/>
<feGaussianBlur stdDeviation="7.5"/>
<feComposite in2="hardAlpha" operator="out"/>
<feColorMatrix type="matrix" values="0 0 0 0 0.595101 0 0 0 0 0.174453 0 0 0 0 0.174453 0 0 0 0.25 0"/>
<feBlend mode="normal" in2="BackgroundImageFix" result="effect1_dropShadow_157_7088"/>
<feBlend mode="normal" in="SourceGraphic" in2="effect1_dropShadow_157_7088" result="shape"/>
</filter>
<filter id="filter19_ii_157_7088" x="33.4062" y="19.4561" width="25.2812" height="54.6904" filterUnits="userSpaceOnUse" color-interpolation-filters="sRGB">
<feFlood flood-opacity="0" result="BackgroundImageFix"/>
<feBlend mode="normal" in="SourceGraphic" in2="BackgroundImageFix" result="shape"/>
<feColorMatrix in="SourceAlpha" type="matrix" values="0 0 0 0 0 0 0 0 0 0 0 0 0 0 0 0 0 0 127 0" result="hardAlpha"/>
<feOffset dx="0.125"/>
<feGaussianBlur stdDeviation="0.0625"/>
<feComposite in2="hardAlpha" operator="arithmetic" k2="-1" k3="1"/>
<feColorMatrix type="matrix" values="0 0 0 0 0.729412 0 0 0 0 0.101961 0 0 0 0 0.152941 0 0 0 1 0"/>
<feBlend mode="normal" in2="shape" result="effect1_innerShadow_157_7088"/>
<feColorMatrix in="SourceAlpha" type="matrix" values="0 0 0 0 0 0 0 0 0 0 0 0 0 0 0 0 0 0 127 0" result="hardAlpha"/>
<feOffset dx="-0.125"/>
<feGaussianBlur stdDeviation="0.0625"/>
<feComposite in2="hardAlpha" operator="arithmetic" k2="-1" k3="1"/>
<feColorMatrix type="matrix" values="0 0 0 0 0.894118 0 0 0 0 0.301961 0 0 0 0 0.341176 0 0 0 1 0"/>
<feBlend mode="normal" in2="effect1_innerShadow_157_7088" result="effect2_innerShadow_157_7088"/>
</filter>
<filter id="filter20_d_157_7088" x="18.5312" y="6.45605" width="55.0312" height="84.6904" filterUnits="userSpaceOnUse" color-interpolation-filters="sRGB">
<feFlood flood-opacity="0" result="BackgroundImageFix"/>
<feColorMatrix in="SourceAlpha" type="matrix" values="0 0 0 0 0 0 0 0 0 0 0 0 0 0 0 0 0 0 127 0" result="hardAlpha"/>
<feOffset dy="2"/>
<feGaussianBlur stdDeviation="7.5"/>
<feComposite in2="hardAlpha" operator="out"/>
<feColorMatrix type="matrix" values="0 0 0 0 0.595101 0 0 0 0 0.174453 0 0 0 0 0.174453 0 0 0 0.25 0"/>
<feBlend mode="normal" in2="BackgroundImageFix" result="effect1_dropShadow_157_7088"/>
<feBlend mode="normal" in="SourceGraphic" in2="effect1_dropShadow_157_7088" result="shape"/>
</filter>
<filter id="filter21_d_157_7088" x="18.5312" y="6.45605" width="55.0312" height="84.6904" filterUnits="userSpaceOnUse" color-interpolation-filters="sRGB">
<feFlood flood-opacity="0" result="BackgroundImageFix"/>
<feColorMatrix in="SourceAlpha" type="matrix" values="0 0 0 0 0 0 0 0 0 0 0 0 0 0 0 0 0 0 127 0" result="hardAlpha"/>
<feOffset dy="2"/>
<feGaussianBlur stdDeviation="7.5"/>
<feComposite in2="hardAlpha" operator="out"/>
<feColorMatrix type="matrix" values="0 0 0 0 0.595101 0 0 0 0 0.174453 0 0 0 0 0.174453 0 0 0 0.25 0"/>
<feBlend mode="normal" in2="BackgroundImageFix" result="effect1_dropShadow_157_7088"/>
<feBlend mode="normal" in="SourceGraphic" in2="effect1_dropShadow_157_7088" result="shape"/>
</filter>
<filter id="filter22_f_157_7088" x="52.8594" y="14.5293" width="7.40625" height="6.45703" filterUnits="userSpaceOnUse" color-interpolation-filters="sRGB">
<feFlood flood-opacity="0" result="BackgroundImageFix"/>
<feBlend mode="normal" in="SourceGraphic" in2="BackgroundImageFix" result="shape"/>
<feGaussianBlur stdDeviation="0.3125" result="effect1_foregroundBlur_157_7088"/>
</filter>
<filter id="filter23_d_157_7088" x="38.4844" y="2.1543" width="36.1562" height="35.207" filterUnits="userSpaceOnUse" color-interpolation-filters="sRGB">
<feFlood flood-opacity="0" result="BackgroundImageFix"/>
<feColorMatrix in="SourceAlpha" type="matrix" values="0 0 0 0 0 0 0 0 0 0 0 0 0 0 0 0 0 0 127 0" result="hardAlpha"/>
<feOffset dy="2"/>
<feGaussianBlur stdDeviation="7.5"/>
<feComposite in2="hardAlpha" operator="out"/>
<feColorMatrix type="matrix" values="0 0 0 0 0.595101 0 0 0 0 0.174453 0 0 0 0 0.174453 0 0 0 0.25 0"/>
<feBlend mode="normal" in2="BackgroundImageFix" result="effect1_dropShadow_157_7088"/>
<feBlend mode="normal" in="SourceGraphic" in2="effect1_dropShadow_157_7088" result="shape"/>
</filter>
<filter id="filter24_f_157_7088" x="24.7031" y="21.96" width="8.70312" height="4.69336" filterUnits="userSpaceOnUse" color-interpolation-filters="sRGB">
<feFlood flood-opacity="0" result="BackgroundImageFix"/>
<feBlend mode="normal" in="SourceGraphic" in2="BackgroundImageFix" result="shape"/>
<feGaussianBlur stdDeviation="0.3125" result="effect1_foregroundBlur_157_7088"/>
</filter>
<filter id="filter25_d_157_7088" x="10.3281" y="9.58496" width="37.4531" height="33.4434" filterUnits="userSpaceOnUse" color-interpolation-filters="sRGB">
<feFlood flood-opacity="0" result="BackgroundImageFix"/>
<feColorMatrix in="SourceAlpha" type="matrix" values="0 0 0 0 0 0 0 0 0 0 0 0 0 0 0 0 0 0 127 0" result="hardAlpha"/>
<feOffset dy="2"/>
<feGaussianBlur stdDeviation="7.5"/>
<feComposite in2="hardAlpha" operator="out"/>
<feColorMatrix type="matrix" values="0 0 0 0 0.595101 0 0 0 0 0.174453 0 0 0 0 0.174453 0 0 0 0.25 0"/>
<feBlend mode="normal" in2="BackgroundImageFix" result="effect1_dropShadow_157_7088"/>
<feBlend mode="normal" in="SourceGraphic" in2="effect1_dropShadow_157_7088" result="shape"/>
</filter>
<linearGradient id="paint0_linear_157_7088" x1="54.0859" y1="26.7432" x2="53.0721" y2="23.1078" gradientUnits="userSpaceOnUse">
<stop stop-color="#CE280A"/>
<stop offset="1" stop-color="#CE280A" stop-opacity="0"/>
</linearGradient>
<linearGradient id="paint1_linear_157_7088" x1="30.9594" y1="22.2547" x2="30.1051" y2="32.4167" gradientUnits="userSpaceOnUse">
<stop stop-color="#DF2332"/>
<stop offset="1" stop-color="#D9213B"/>
</linearGradient>
<linearGradient id="paint2_linear_157_7088" x1="28.0582" y1="33.9997" x2="27.0444" y2="30.3644" gradientUnits="userSpaceOnUse">
<stop stop-color="#CE280A"/>
<stop offset="1" stop-color="#CE280A" stop-opacity="0"/>
</linearGradient>
<radialGradient id="paint3_radial_157_7088" cx="0" cy="0" r="1" gradientUnits="userSpaceOnUse" gradientTransform="translate(36.0311 31.3672) rotate(170.815) scale(5.22068 13.7314)">
<stop offset="0.151" stop-color="#BD1123"/>
<stop offset="1" stop-color="#BD1123" stop-opacity="0"/>
</radialGradient>
<linearGradient id="paint4_linear_157_7088" x1="28.209" y1="67.872" x2="71.2541" y2="55.8681" gradientUnits="userSpaceOnUse">
<stop stop-color="#F1A738"/>
<stop offset="1" stop-color="#FAD42C"/>
</linearGradient>
<linearGradient id="paint5_linear_157_7088" x1="43.4229" y1="39.2479" x2="45.1962" y2="45.6069" gradientUnits="userSpaceOnUse">
<stop stop-color="#C97525"/>
<stop offset="1" stop-color="#C97525" stop-opacity="0"/>
</linearGradient>
<radialGradient id="paint6_radial_157_7088" cx="0" cy="0" r="1" gradientUnits="userSpaceOnUse" gradientTransform="translate(43.3348 56.8005) rotate(164.418) scale(4.82422 37.959)">
<stop stop-color="#C87C28"/>
<stop offset="1" stop-color="#C87C28" stop-opacity="0"/>
</radialGradient>
<linearGradient id="paint7_linear_157_7088" x1="26.0058" y1="64.1382" x2="32.3647" y2="62.3649" gradientUnits="userSpaceOnUse">
<stop stop-color="#C2773F"/>
<stop offset="1" stop-color="#C2773F" stop-opacity="0"/>
</linearGradient>
<linearGradient id="paint8_linear_157_7088" x1="54.0396" y1="73.4393" x2="53.1115" y2="70.1111" gradientUnits="userSpaceOnUse">
<stop stop-color="#E68370"/>
<stop offset="1" stop-color="#E68370" stop-opacity="0"/>
</linearGradient>
<linearGradient id="paint9_linear_157_7088" x1="72.2125" y1="54.0193" x2="66.9551" y2="55.4854" gradientUnits="userSpaceOnUse">
<stop stop-color="#FFF733"/>
<stop offset="1" stop-color="#FFF733" stop-opacity="0"/>
</linearGradient>
<linearGradient id="paint10_linear_157_7088" x1="68.3047" y1="30.1721" x2="17.3967" y2="44.2275" gradientUnits="userSpaceOnUse">
<stop stop-color="#F6D729"/>
<stop offset="1" stop-color="#F39B3A"/>
</linearGradient>
<linearGradient id="paint11_linear_157_7088" x1="68.039" y1="29.2193" x2="64.6599" y2="30.1616" gradientUnits="userSpaceOnUse">
<stop stop-color="#FFF850"/>
<stop offset="1" stop-color="#FFF850" stop-opacity="0"/>
</linearGradient>
<linearGradient id="paint12_linear_157_7088" x1="44.687" y1="43.7847" x2="44.0454" y2="41.4838" gradientUnits="userSpaceOnUse">
<stop stop-color="#E8AF21"/>
<stop offset="1" stop-color="#E8AF21" stop-opacity="0"/>
</linearGradient>
<radialGradient id="paint13_radial_157_7088" cx="0" cy="0" r="1" gradientUnits="userSpaceOnUse" gradientTransform="translate(25.6414 49.95) rotate(-105.582) scale(3.70524 26.6193)">
<stop stop-color="#DE7550"/>
<stop offset="1" stop-color="#DE7550" stop-opacity="0"/>
</radialGradient>
<linearGradient id="paint14_linear_157_7088" x1="16.8485" y1="44.3867" x2="21.3722" y2="43.1252" gradientUnits="userSpaceOnUse">
<stop stop-color="#BE7841"/>
<stop offset="1" stop-color="#BE7841" stop-opacity="0"/>
</linearGradient>
<radialGradient id="paint15_radial_157_7088" cx="0" cy="0" r="1" gradientUnits="userSpaceOnUse" gradientTransform="translate(39.1548 39.4483) rotate(164.418) scale(5.1416 35.6103)">
<stop offset="0.189" stop-color="#C57E10"/>
<stop offset="1" stop-color="#C57E10" stop-opacity="0"/>
</radialGradient>
<linearGradient id="paint16_linear_157_7088" x1="37.9803" y1="19.681" x2="52.7107" y2="72.5032" gradientUnits="userSpaceOnUse">
<stop stop-color="#D12136"/>
<stop offset="1" stop-color="#B6246E"/>
</linearGradient>
<linearGradient id="paint17_linear_157_7088" x1="52.8347" y1="73.0084" x2="52.0469" y2="70.1831" gradientUnits="userSpaceOnUse">
<stop stop-color="#B3368C"/>
<stop offset="1" stop-color="#B3368C" stop-opacity="0"/>
</linearGradient>
</defs>
</svg>
