<svg width="60" height="60" viewBox="0 0 60 60" fill="none" xmlns="http://www.w3.org/2000/svg">
<rect width="60" height="60" rx="30" fill="black"/>
<path d="M36.8473 40.0371C35.5408 41.3036 34.1143 41.1036 32.7412 40.5037C31.288 39.8904 29.9548 39.8638 28.4217 40.5037C26.5019 41.3303 25.4887 41.0903 24.3422 40.0371C17.8364 33.3313 18.7963 23.1192 26.182 22.7459C27.9818 22.8393 29.2349 23.7325 30.2881 23.8125C31.8613 23.4925 33.3678 22.5726 35.0475 22.6926C37.0606 22.8526 38.5804 23.6525 39.5803 25.0923C35.4208 27.5853 36.4074 33.0646 40.2202 34.5978C39.4603 36.5975 38.4738 38.5839 36.834 40.0504L36.8473 40.0371ZM30.1548 22.666C29.9548 19.693 32.3679 17.24 35.1409 17C35.5275 20.4396 32.0213 22.9992 30.1548 22.666Z" fill="white"/>
</svg>
