<svg width="57" height="20" viewBox="0 0 57 20" fill="none" xmlns="http://www.w3.org/2000/svg">
<path d="M54.2852 4.96334L51.5952 11.0933L48.5552 4.96334H46.2151L50.5252 13.4733L48.7451 17.4433H51.0152L56.5552 4.96334H54.2852ZM44.9153 14.4433H42.6853V13.5533C41.8853 14.2433 40.9152 14.6334 39.7552 14.6334C37.0952 14.6334 35.0052 12.4633 35.0052 9.70334C35.0052 6.93334 37.0852 4.77344 39.7552 4.77344C40.9152 4.77344 41.8753 5.15334 42.6853 5.85334V4.96334H44.9153V14.4433ZM42.9453 9.70334C42.9453 7.91334 41.6952 6.56334 40.0452 6.56334C38.3952 6.56334 37.1453 7.92334 37.1453 9.70334C37.1453 11.4933 38.3952 12.8433 40.0452 12.8433C41.7052 12.8433 42.9453 11.4933 42.9453 9.70334ZM23.9551 17.4433H26.2752V13.6434C27.0552 14.2834 27.9953 14.6434 29.1053 14.6434C31.7653 14.6434 33.8553 12.4733 33.8553 9.71334C33.8553 6.94334 31.7753 4.78344 29.1053 4.78344C27.9453 4.78344 26.9853 5.16334 26.1753 5.86334V4.97334H23.9453V17.4433H23.9551ZM28.8252 6.56334C30.4752 6.56334 31.7251 7.92334 31.7251 9.70334C31.7251 11.4933 30.4752 12.8433 28.8252 12.8433C27.1752 12.8433 25.9253 11.4833 25.9253 9.70334C25.9253 7.91334 27.1652 6.56334 28.8252 6.56334Z" fill="#03C75A"/>
<path d="M19.7973 9.99422C19.7973 15.3342 15.4674 19.6742 10.1174 19.6742C4.7774 19.6742 0.4375 15.3442 0.4375 9.99422C0.4375 4.64422 4.7674 0.324219 10.1174 0.324219C15.4674 0.324219 19.7973 4.65422 19.7973 9.99422ZM11.7473 5.44422V10.3142L8.3674 5.44422H5.5774V14.5343H8.5073V9.66432L11.8874 14.5343H14.6775V5.44422H11.7473Z" fill="#03C75A"/>
</svg>
