<svg width="32" height="32" viewBox="0 0 32 32" fill="none" xmlns="http://www.w3.org/2000/svg">
<g clip-path="url(#clip0_1790_12305)">
<path d="M27.6785 9.30376C28.027 8.96331 28.1837 8.47323 28.0429 8.01286L26.7172 3.70328C26.5138 3.04951 25.8133 2.68317 25.1517 2.88668L9.3326 7.78977L1.24101 10.2952C0.575522 10.5027 0.203461 11.2002 0.402902 11.854L1.72861 16.1635C1.86939 16.6239 2.27247 16.9424 2.7539 17.0236C3.84203 17.212 4.78124 17.9836 5.12537 19.1016C5.46951 20.2196 5.12471 21.3862 4.3338 22.161C3.98533 22.5015 3.82861 22.9916 3.9694 23.4519L5.2951 27.7615C5.49845 28.4153 6.19901 28.7816 6.86058 28.5781L14.9561 26.0687L30.7713 21.1657C31.4329 20.9583 31.8088 20.2608 31.6094 19.607L30.2837 15.2974C30.1429 14.837 29.7398 14.5185 29.2584 14.4373C28.1703 14.2489 27.2311 13.4773 26.8869 12.3593C26.5428 11.2413 26.8876 10.0747 27.6785 9.29988L27.6785 9.30376Z" fill="#FFD79B"/>
<path fill-rule="evenodd" clip-rule="evenodd" d="M17.1749 13.1352L15.4558 11.458C14.9977 11.0136 14.2184 11.2658 14.1121 11.8979L13.7042 14.2713L11.5925 15.4462C11.0537 15.7481 11.0412 16.5126 11.5771 16.8165L13.7449 18.0515L14.2131 20.4991C14.3302 21.114 15.0968 21.349 15.5495 20.9027L17.2386 19.2509L19.5728 19.5871C20.1973 19.6751 20.6791 19.038 20.4149 18.4702L19.3584 16.2149L20.3868 13.9335C20.6381 13.3732 20.1815 12.7585 19.5714 12.8365L17.1749 13.1352Z" fill="#F5A227"/>
</g>
<defs>
<clipPath id="clip0_1790_12305">
<rect width="32" height="26.1333" fill="white" transform="translate(0 2.66699)"/>
</clipPath>
</defs>
</svg>
