<svg width="19" height="20" viewBox="0 0 19 20" fill="none" xmlns="http://www.w3.org/2000/svg">
<g clip-path="url(#clip0_157_7324)">
<path d="M9.74687 19.2008C14.8279 19.2008 18.9469 15.0818 18.9469 10.0008C18.9469 4.91976 14.8279 0.800781 9.74687 0.800781C4.66585 0.800781 0.546875 4.91976 0.546875 10.0008C0.546875 15.0818 4.66585 19.2008 9.74687 19.2008Z" fill="#FFD79B"/>
<path d="M9.74802 17.0449C13.6388 17.0449 16.7929 13.8908 16.7929 9.99998C16.7929 6.10919 13.6388 2.95508 9.74802 2.95508C5.85723 2.95508 2.70312 6.10919 2.70312 9.99998C2.70312 13.8908 5.85723 17.0449 9.74802 17.0449Z" fill="#F5A227"/>
<path fill-rule="evenodd" clip-rule="evenodd" d="M7.84462 6.12695C8.15144 6.12695 8.40017 6.37568 8.40017 6.68251V13.5503C8.40017 13.8571 8.15144 14.1059 7.84462 14.1059C7.53779 14.1059 7.28906 13.8571 7.28906 13.5503V6.68251C7.28906 6.37568 7.53779 6.12695 7.84462 6.12695Z" fill="#FFE9C9"/>
<path fill-rule="evenodd" clip-rule="evenodd" d="M7.28906 6.68251C7.28906 6.37568 7.53779 6.12695 7.84462 6.12695H10.6805C12.0614 6.12695 13.1888 7.25428 13.1888 8.63521C13.1888 10.0161 12.0614 11.1435 10.6805 11.1435H7.84462C7.53779 11.1435 7.28906 10.8947 7.28906 10.5879C7.28906 10.2811 7.53779 10.0324 7.84462 10.0324H10.6805C11.4478 10.0324 12.0777 9.40248 12.0777 8.63521C12.0777 7.86793 11.4478 7.23806 10.6805 7.23806H7.84462C7.53779 7.23806 7.28906 6.98933 7.28906 6.68251Z" fill="#FFE9C9"/>
</g>
<defs>
<clipPath id="clip0_157_7324">
<rect width="18.4" height="18.4" fill="white" transform="translate(0.546875 0.800781)"/>
</clipPath>
</defs>
</svg>
