<svg width="21" height="18" viewBox="0 0 21 18" fill="none" xmlns="http://www.w3.org/2000/svg">
<g clip-path="url(#clip0_157_7336)">
<path d="M18.57 7.29206C18.8463 7.14911 19.0341 6.87712 19.035 6.5663L19.0388 3.65521C19.038 3.21316 18.6802 2.85281 18.2389 2.85121L7.67949 2.83577L2.27876 2.82634C1.83432 2.8264 1.47636 3.18491 1.47476 3.62623L1.47098 6.53732C1.47006 6.84813 1.65565 7.12185 1.93363 7.26435C2.56098 7.58948 2.98785 8.24545 2.987 9.0007C2.98615 9.75595 2.55648 10.4089 1.92882 10.7346C1.65245 10.8775 1.46473 11.1495 1.46381 11.4603L1.46003 14.3714C1.46082 14.8135 1.8186 15.1738 2.25991 15.1754L7.66376 15.1832L18.2208 15.1979C18.6628 15.1971 19.0232 14.8393 19.0247 14.398L19.0285 11.4869C19.0294 11.1761 18.8439 10.9024 18.5659 10.7599C17.9385 10.4348 17.5117 9.7788 17.5125 9.02355C17.5134 8.2683 17.943 7.61539 18.5707 7.28967L18.57 7.29206Z" fill="#FFD79B"/>
<path fill-rule="evenodd" clip-rule="evenodd" d="M11.4478 7.6823L10.7513 6.33479C10.5652 5.97726 10.0535 5.97505 9.86793 6.33399L9.16619 7.68014L7.68433 7.96953C7.30583 8.04465 7.15042 8.50168 7.40992 8.79015L8.45859 9.96039L8.26289 11.524C8.21341 11.9167 8.62327 12.2093 8.97861 12.0304L10.3017 11.3709L11.6232 12.0337C11.9771 12.2099 12.3867 11.9221 12.3397 11.5286L12.1486 9.96444L13.2012 8.79613C13.459 8.50893 13.3067 8.04933 12.9292 7.97575L11.4478 7.6823Z" fill="#F5A227"/>
</g>
<defs>
<clipPath id="clip0_157_7336">
<rect width="20" height="16.5275" fill="white" transform="translate(0.25 0.75)"/>
</clipPath>
</defs>
</svg>
